# This file uses centimeters as units for non-parametric coordinates.

mtllib BG.mtl
g default
v -10113.546599 -41.019506 5201.119141
v 4193.227852 -41.019506 5201.119141
v -10113.546599 17401.873779 5201.119141
v 4193.227852 17401.873779 5201.119141
v -10113.546599 17401.873779 -11579.208984
v 4193.227852 17401.873779 -11579.208984
v -10113.546599 -41.019506 -11579.208984
v 4193.227852 -41.019506 -11579.208984
vt 0.030680 0.534490
vt 0.460279 0.534490
vt 0.460279 0.891080
vt 0.030680 0.891080
vt -1.151914 0.491847
vt 1.857650 0.491847
vt 1.857650 1.600601
vt -1.151914 1.600601
vt 0.576817 0.513603
vt 0.998008 0.513603
vt 0.998008 0.934794
vt 0.576817 0.934794
vt 2.266785 1.986254
vt -2.320558 1.986254
vt -2.320559 0.490272
vt 2.266785 0.490272
vn 0.000000 0.000000 -1.000000
vn 0.000000 0.000000 -1.000000
vn 0.000000 0.000000 -1.000000
vn 0.000000 0.000000 -1.000000
vn 0.000000 0.000000 1.000000
vn 0.000000 0.000000 1.000000
vn 0.000000 0.000000 1.000000
vn 0.000000 0.000000 1.000000
vn -1.000000 0.000000 0.000000
vn -1.000000 0.000000 0.000000
vn -1.000000 0.000000 0.000000
vn -1.000000 0.000000 0.000000
vn 1.000000 0.000000 0.000000
vn 1.000000 0.000000 0.000000
vn 1.000000 0.000000 0.000000
vn 1.000000 0.000000 0.000000
s off
g BG
usemtl lambert13SG
f 1/9/1 3/12/2 4/11/3 2/10/4
f 5/13/5 7/16/6 8/15/7 6/14/8
f 2/1/9 4/4/10 6/3/11 8/2/12
f 7/5/13 5/8/14 3/7/15 1/6/16
