# This file uses centimeters as units for non-parametric coordinates.

mtllib UnionBuilding_window.mtl
g default
v -5091.369057 355.083557 432.129654
v -4646.232216 355.083557 -2761.169540
v -5091.369057 1442.047119 432.129654
v -4646.232216 1442.047119 -2761.169540
v -4593.840736 355.083557 10.046646
v -4593.840736 1442.047119 10.046646
v -4635.966713 355.083557 -2218.177414
v -4635.966713 1442.047119 -2218.177414
v -4619.954018 355.083557 -1371.197616
v -4619.954018 1442.047119 -1371.197616
v -4628.306923 355.083557 -1813.017319
v -4628.306923 1442.047119 -1813.017319
v -5288.210243 26.770996 99.782730
v -4958.260689 26.770996 -2804.530502
v -5288.210243 278.637665 99.782730
v -4958.260689 278.637665 -2804.530502
v -4958.260689 26.770996 -2202.450668
v -4958.260689 278.637665 -2202.450668
v -4958.260689 26.770996 -1844.779159
v -4958.260689 278.637665 -1844.779159
v -4958.260689 26.770996 -2146.660629
v -4958.260689 278.637665 -2146.660629
v -4958.260689 26.770996 -1591.333969
v -4958.260689 278.637665 -1591.333969
v -4958.260689 26.770996 -1515.521957
v -4958.260689 278.637665 -1515.521957
v -4958.260689 26.770996 -177.400131
v -4958.260689 278.637665 -177.400131
vt 0.008794 0.109209
vt 0.227864 0.109209
vt 0.008794 0.008936
vt 0.227864 0.008936
vt 0.234043 0.075435
vt 0.284805 0.075435
vt 0.234043 0.008936
vt 0.284805 0.008936
vt 0.290781 0.567455
vt 0.290781 0.289075
vt 0.509851 0.289075
vt 0.509851 0.567455
vt 0.290781 0.200029
vt 0.509851 0.200029
vt 0.290781 0.118372
vt 0.509851 0.118372
vt 0.290781 0.008936
vt 0.509851 0.008936
vt 0.566603 0.130281
vt 0.515841 0.130281
vt 0.515841 0.008936
vt 0.566603 0.008936
vt 0.566603 0.141525
vt 0.515841 0.141525
vt 0.566603 0.202367
vt 0.515841 0.202367
vt 0.566603 0.253447
vt 0.515841 0.253447
vt 0.566603 0.268727
vt 0.515841 0.268727
vt 0.566603 0.538416
vt 0.515841 0.538416
vn 0.646922 -0.000000 0.762556
vn 0.967489 -0.000000 0.252915
vn 0.967489 -0.000000 0.252915
vn 0.646922 -0.000000 0.762556
vn 0.999821 0.000000 -0.018902
vn 0.999821 0.000000 -0.018902
vn 0.999821 0.000000 -0.018902
vn 0.999821 0.000000 -0.018902
vn 0.999821 0.000000 -0.018902
vn 0.999821 0.000000 -0.018902
vn 0.999821 0.000000 -0.018902
vn 0.999821 0.000000 -0.018902
vn 0.643226 -0.000000 0.765676
vn 0.979769 -0.000000 0.200132
vn 0.979769 -0.000000 0.200132
vn 0.643226 -0.000000 0.765676
vn 1.000000 0.000000 0.000000
vn 1.000000 0.000000 0.000000
vn 1.000000 0.000000 0.000000
vn 1.000000 0.000000 0.000000
vn 1.000000 0.000000 0.000000
vn 1.000000 0.000000 0.000000
vn 1.000000 0.000000 0.000000
vn 1.000000 0.000000 0.000000
vn 1.000000 0.000000 0.000000
vn 1.000000 0.000000 0.000000
vn 1.000000 0.000000 0.000000
vn 1.000000 0.000000 0.000000
s 1
g UnionBuilding_window UnionBuilding
usemtl aiStandardSurface1SG
f 1/1/1 5/3/2 6/4/3 3/2/4
f 5/9/2 9/10/5 10/11/6 6/12/3
f 8/16/7 7/15/8 2/17/9 4/18/10
f 10/11/6 9/10/5 11/13/11 12/14/12
f 12/14/12 11/13/11 7/15/8 8/16/7
s 3
f 13/5/13 27/7/14 28/8/15 15/6/16
f 18/19/17 17/20/18 14/21/19 16/22/20
f 20/25/21 19/26/22 21/24/23 22/23/24
f 22/23/24 21/24/23 17/20/18 18/19/17
f 24/27/25 23/28/26 19/26/22 20/25/21
f 26/29/27 25/30/28 23/28/26 24/27/25
f 28/31/15 27/32/14 25/30/28 26/29/27
